PathFileType	3	(X/Y/Z)	D:\Vicon Database\Healthy Subjects\S0040\Jan. 30, 2020\Force Plate Walk 3.trc
DataRate	CameraRate	NumFrames	NumMarkers	Units	OrigDataRate	OrigDataStartFrame	OrigNumFrames
100.0	100.0	4	53	mm	100.0	370	290	
Frame#	Time	right_foot_cluster2			right_foot_cluster3			sternum_cluster1			sternum_cluster2			sternum_cluster3			left_asis			right_asis			left_psis			right_psis			sacrum_cluster1			sacrum_cluster2			sacrum_cluster3			left_lat_femoral_epicondyle			left_anterior_thigh15			left_anterior_thigh25			left_anterior_thigh50			left_lateral_thigh25			left_lateral_thigh50			left_thigh_cluster1			left_thigh_cluster2			left_thigh_cluster3			left_fibular_head			left_tibial_tuberosity			left_anterior_shank30			left_lateral_malleolus			left_shank_cluster1			left_shank_cluster2			left_shank_cluster3			left_heel			left_metatarsal2			left_foot_cluster1			left_foot_cluster2			left_foot_cluster3			right_lat_femoral_epicondyle			right_anterior_thigh15			right_anterior_thigh25			right_anterior_thigh50			right_lateral_thigh25			right_lateral_thigh50			right_thigh_cluster1			right_thigh_cluster2			right_thigh_cluster3			right_fibular_head			right_tibial_tuberosity			right_lateral_distal_shank			right_anterior_shank30			right_lateral_malleolus			right_shank_cluster1			right_shank_cluster2			right_shank_cluster3			right_heel			right_metatarsal2			right_foot_cluster1			
		X1	Y1	Z1	X2	Y2	Z2	X3	Y3	Z3	X4	Y4	Z4	X5	Y5	Z5	X6	Y6	Z6	X7	Y7	Z7	X8	Y8	Z8	X9	Y9	Z9	X10	Y10	Z10	X11	Y11	Z11	X12	Y12	Z12	X13	Y13	Z13	X14	Y14	Z14	X15	Y15	Z15	X16	Y16	Z16	X17	Y17	Z17	X18	Y18	Z18	X19	Y19	Z19	X20	Y20	Z20	X21	Y21	Z21	X22	Y22	Z22	X23	Y23	Z23	X24	Y24	Z24	X25	Y25	Z25	X26	Y26	Z26	X27	Y27	Z27	X28	Y28	Z28	X29	Y29	Z29	X30	Y30	Z30	X31	Y31	Z31	X32	Y32	Z32	X33	Y33	Z33	X34	Y34	Z34	X35	Y35	Z35	X36	Y36	Z36	X37	Y37	Z37	X38	Y38	Z38	X39	Y39	Z39	X40	Y40	Z40	X41	Y41	Z41	X42	Y42	Z42	X43	Y43	Z43	X44	Y44	Z44	X45	Y45	Z45	X46	Y46	Z46	X47	Y47	Z47	X48	Y48	Z48	X49	Y49	Z49	X50	Y50	Z50	X51	Y51	Z51	X52	Y52	Z52	X53	Y53	Z53	
370	3.69	2243.3486	189.7151	-239.59755	2243.3372	190.1563	-277.17889	2572.3521	1419.9192	-152.97124	2563.8655	1390.8754	-146.47273	2569.5886	1393.7262	-183.96196	2599.1704	1041.8691	-24.527987	2615.9644	1059.1819	-275.11935	2767.6675	1069.6488	-68.736511	2779.9563	1070.3201	-185.84409	2782.7607	1127.0922	-131.97174	2788.5466	1100.7966	-143.66389	2787.5435	1095.9587	-104.44366	2821.0269	551.60077	-8.1538696	2702.9277	591.74933	-59.437508	2649.5249	666.36896	-41.316887	2604.384	800.11328	-18.972673	2764.4678	694.14032	15.347851	2706.2366	828.64917	42.596149	2725.8438	787.07532	47.949272	2737.5117	760.15674	44.405777	2699.6123	757.46381	48.753967	2848.0991	474.47568	-2.136636	2800.8721	445.61972	-56.713619	2914.656	220.09178	-68.718353	3006.8237	133.27534	-40.715191	2821.5581	394.9744	-85.612129	2823.7786	368.40219	-76.811188	2841.2314	373.51169	-112.66804	3088.6387	113.49829	-74.541588	2875.0864	64.045227	-70.439392	2922.8125	125.03071	-68.275856	2903.8601	103.94412	-57.422401	2897.7019	106.37947	-95.252411	2492.7156	547.71814	-295.16888	2450.4238	655.82495	-236.93765	2466.5718	733.64484	-238.16205	2517.1077	850.77319	-245.07239	2557.2358	691.66058	-321.86539	2614.6187	829.23511	-345.0253	2601.4214	777.42761	-351.19406	2581.0164	756.6131	-348.19986	2616.009	741.39453	-340.40219	2474.615	484.06296	-299.87607	2420.0303	494.55844	-253.87373	2383.5178	228.6557	-297.50717	2347.0688	258.1412	-249.8588	2335.2229	126.06574	-285.17657	2407.5916	429.03333	-202.10345	2401.6353	400.85446	-195.55603	2379.4224	408.83701	-223.82788	2379.8728	54.775703	-249.10088	2199.4575	177.97182	-247.23528	2270.842	189.28166	-249.66435
371	3.7	2230.1101	186.07857	-240.31912	2230.436	186.22105	-277.80865	2558.3948	1418.3466	-154.67595	2549.0503	1389.6061	-147.77502	2554.8589	1392.3976	-185.41264	2583.6443	1039.8268	-26.222067	2599.1621	1057.8047	-276.58707	2751.4797	1067.557	-70.585243	2763.4338	1068.2463	-187.65672	2765.6023	1124.5676	-134.23045	2772.2654	1098.6287	-145.45908	2771.3044	1093.7559	-106.24804	2806.583	551.00671	-9.2227926	2687.5676	589.86584	-59.435658	2634.0593	664.5401	-41.234425	2588.762	798.48175	-19.33605	2749.5691	693.06213	13.90057	2691.1875	827.47906	41.096912	2710.8816	786.08276	46.418823	2722.6326	759.10999	42.838306	2684.877	756.37579	47.53812	2834.625	474.38712	-2.908983	2787.8337	443.91016	-57.443932	2908.2148	221.61783	-68.499977	3002.5762	137.22525	-40.285339	2809.835	393.88232	-86.650101	2813.8335	367.03149	-77.256882	2830.4377	372.74356	-113.11381	3084.9512	120.11642	-74.362793	2873.3096	63.354374	-70.206467	2918.8191	125.94348	-67.742134	2900.593	104.19609	-56.896343	2894.3669	106.70543	-94.757202	2474.6982	546.67731	-296.32251	2432.2976	656.05536	-239.19646	2449.6091	732.84613	-239.86391	2500.3811	849.77155	-246.23077	2539.001	691.02203	-323.73874	2597.4985	828.297	-347.18832	2583.9443	776.26208	-353.32623	2563.3774	755.61835	-350.02155	2598.0115	740.14581	-342.17297	2457.1736	482.17578	-300.6062	2402.5776	492.78491	-255.31519	2369.8357	225.59589	-297.19321	2332.4492	254.99638	-250.25052	2322.5039	122.76411	-284.93777	2390.4485	426.92053	-203.32158	2384.781	398.81659	-196.48123	2362.9182	406.10373	-225.17072	2366.7959	50.82008	-247.52908	2186.2966	174.17622	-247.98441	2257.7529	185.70796	-250.34708
372	3.71	2219.1489	180.99193	-240.40781	2219.5618	181.02301	-277.99274	2543.7349	1417.384	-155.97702	2534.2356	1388.6534	-149.22495	2539.9399	1391.4574	-186.80281	2566.8074	1038.5858	-27.140015	2582.0251	1056.6075	-277.99976	2735	1065.5293	-72.621811	2746.4563	1066.2679	-189.64558	2750.1938	1122.8481	-135.75798	2755.656	1096.4984	-147.51697	2754.8359	1091.6569	-108.27912	2790.9055	550.07111	-10.771809	2671.156	587.89886	-59.477783	2617.6973	662.98047	-41.171459	2572.6731	797.20941	-19.871086	2733.9077	692.05597	12.441178	2675.6731	826.36389	39.425816	2695.7339	785.16846	44.525837	2707.1897	758.10114	41.229462	2669.7844	755.5141	46.398987	2819.8008	473.93097	-3.6397431	2773.5549	442.06229	-58.071087	2901.2578	223.11807	-68.493744	2997.4631	141.63138	-39.745647	2797.2429	392.03415	-86.498665	2804.54	365.56192	-77.774826	2817.9563	371.89999	-113.41918	3080.3428	127.52965	-74.389626	2871.2544	62.667942	-69.933708	2913.9524	126.7823	-66.962227	2896.644	104.21981	-56.591621	2890.4207	106.63212	-94.209068	2456.6199	545.18396	-297.55939	2414.4766	655.7052	-241.78514	2431.8965	732.57928	-241.36382	2483.5359	848.742	-247.27771	2520.5039	690.02551	-325.4968	2580.2932	827.00757	-349.04529	2566.3096	774.96893	-355.47168	2545.7107	754.56293	-352.06464	2580.085	738.63885	-344.23676	2440.6208	480.16431	-301.51602	2385.4309	490.3114	-256.91537	2358.0237	222.0722	-297.42319	2320.0925	250.92406	-250.87669	2312.7405	118.60472	-284.40033	2373.8958	424.1832	-204.43051	2368.4785	396.1459	-197.48354	2346.7417	403.04941	-226.57494	2358.2217	48.548092	-246.81831	2175.5398	168.71684	-248.27354	2247.0598	180.90341	-250.34082
373	3.72	2208.9456	174.03049	-239.66928	2209.6699	174.26666	-277.23453	2529.1379	1416.5411	-157.56734	2519.4163	1387.8773	-150.67604	2525.0071	1390.7537	-188.24611	2550.1943	1037.4637	-28.54314	2564.4063	1055.4618	-279.85657	2718.303	1063.7062	-74.81337	2729.0789	1064.4222	-191.85324	2733.5046	1121.0103	-137.94743	2738.6707	1094.5883	-149.79343	2738.0667	1089.7122	-110.53349	2773.6846	548.70581	-11.679828	2653.1758	586.04297	-59.540974	2600.3662	661.51294	-41.346268	2556.0815	796.09387	-20.526924	2717.3032	690.77368	10.880173	2659.5786	825.28632	37.645809	2679.7385	784.35388	42.656139	2691.2158	757.13	39.556	2653.5325	754.63605	45.133583	2803.5601	473.19568	-4.4259505	2758.0796	439.97058	-58.80814	2892.54	225.12157	-68.45224	2991.6206	146.41208	-39.320957	2783.2329	390.44659	-86.813148	2791.9722	364.09076	-77.978607	2805.1033	370.3494	-113.7422	3074.8252	135.94807	-74.632294	2868.9248	61.593399	-69.634666	2908.3989	127.82182	-66.571686	2892.259	104.19821	-55.954445	2885.9771	106.60322	-93.759483	2438.8552	543.22046	-298.76544	2396.1584	654.90057	-244.1955	2413.9448	732.02698	-242.63947	2466.4175	847.48242	-248.26384	2502.1431	688.79297	-326.87228	2562.4971	825.30518	-350.24811	2548.874	773.20056	-356.92358	2527.9531	753.19598	-353.58414	2562.3257	736.95953	-346.31677	2424.7927	477.61264	-302.28534	2369.2773	487.19052	-258.29922	2348.3538	217.85687	-296.90948	2308.6768	246.29491	-251.69498	2304.6934	115.73075	-283.96115	2358.1396	421.37851	-205.6925	2354.28	392.51596	-198.96243	2331.9858	398.7894	-227.85693	2353.8225	50.154621	-246.51949	2165.9646	160.4769	-248.03191	2236.6711	174.92772	-249.40584
